<mxfile host="app.diagrams.net" modified="2023-05-01T07:25:00.177Z" agent="Mozilla/5.0 (Windows NT 10.0; Win64; x64) AppleWebKit/537.36 (KHTML, like Gecko) Chrome/112.0.0.0 Safari/537.36" etag="rMa6RDCvGIQ4Fq0EhTQA" version="21.2.3" type="device">
  <diagram id="C5RBs43oDa-KdzZeNtuy" name="Page-1">
    <mxGraphModel dx="1687" dy="899" grid="1" gridSize="10" guides="1" tooltips="1" connect="1" arrows="1" fold="1" page="1" pageScale="1" pageWidth="827" pageHeight="1169" math="0" shadow="0">
      <root>
        <mxCell id="WIyWlLk6GJQsqaUBKTNV-0" />
        <mxCell id="WIyWlLk6GJQsqaUBKTNV-1" parent="WIyWlLk6GJQsqaUBKTNV-0" />
        <mxCell id="Zj6hpNKmNGpSNfHuOwGX-1" value="" style="edgeStyle=orthogonalEdgeStyle;rounded=0;orthogonalLoop=1;jettySize=auto;html=1;" edge="1" parent="WIyWlLk6GJQsqaUBKTNV-1" source="WIyWlLk6GJQsqaUBKTNV-3" target="WIyWlLk6GJQsqaUBKTNV-6">
          <mxGeometry relative="1" as="geometry" />
        </mxCell>
        <mxCell id="WIyWlLk6GJQsqaUBKTNV-3" value="Aktion ausw채hlen" style="rounded=1;whiteSpace=wrap;html=1;fontSize=12;glass=0;strokeWidth=1;shadow=0;" parent="WIyWlLk6GJQsqaUBKTNV-1" vertex="1">
          <mxGeometry x="340" y="80" width="120" height="40" as="geometry" />
        </mxCell>
        <mxCell id="Zj6hpNKmNGpSNfHuOwGX-5" value="Eingabe: 1" style="edgeStyle=orthogonalEdgeStyle;rounded=0;orthogonalLoop=1;jettySize=auto;html=1;" edge="1" parent="WIyWlLk6GJQsqaUBKTNV-1" source="WIyWlLk6GJQsqaUBKTNV-6" target="Zj6hpNKmNGpSNfHuOwGX-3">
          <mxGeometry x="0.6522" relative="1" as="geometry">
            <mxPoint as="offset" />
          </mxGeometry>
        </mxCell>
        <mxCell id="Zj6hpNKmNGpSNfHuOwGX-6" value="Eingabe: 2" style="edgeStyle=orthogonalEdgeStyle;rounded=0;orthogonalLoop=1;jettySize=auto;html=1;" edge="1" parent="WIyWlLk6GJQsqaUBKTNV-1" source="WIyWlLk6GJQsqaUBKTNV-6" target="Zj6hpNKmNGpSNfHuOwGX-2">
          <mxGeometry relative="1" as="geometry" />
        </mxCell>
        <mxCell id="Zj6hpNKmNGpSNfHuOwGX-7" value="Eingabe: 3" style="edgeStyle=orthogonalEdgeStyle;rounded=0;orthogonalLoop=1;jettySize=auto;html=1;entryX=0.5;entryY=0;entryDx=0;entryDy=0;" edge="1" parent="WIyWlLk6GJQsqaUBKTNV-1" source="WIyWlLk6GJQsqaUBKTNV-6" target="Zj6hpNKmNGpSNfHuOwGX-4">
          <mxGeometry x="0.6522" relative="1" as="geometry">
            <mxPoint as="offset" />
          </mxGeometry>
        </mxCell>
        <mxCell id="WIyWlLk6GJQsqaUBKTNV-6" value="" style="rhombus;whiteSpace=wrap;html=1;shadow=0;fontFamily=Helvetica;fontSize=12;align=center;strokeWidth=1;spacing=6;spacingTop=-4;" parent="WIyWlLk6GJQsqaUBKTNV-1" vertex="1">
          <mxGeometry x="380" y="170" width="40" height="40" as="geometry" />
        </mxCell>
        <mxCell id="Zj6hpNKmNGpSNfHuOwGX-0" value="" style="edgeStyle=orthogonalEdgeStyle;rounded=0;orthogonalLoop=1;jettySize=auto;html=1;" edge="1" parent="WIyWlLk6GJQsqaUBKTNV-1" source="22GeLPd-m2-6EwsyLJvj-0" target="WIyWlLk6GJQsqaUBKTNV-3">
          <mxGeometry relative="1" as="geometry" />
        </mxCell>
        <mxCell id="22GeLPd-m2-6EwsyLJvj-0" value="" style="strokeWidth=2;html=1;shape=mxgraph.flowchart.start_2;whiteSpace=wrap;" parent="WIyWlLk6GJQsqaUBKTNV-1" vertex="1">
          <mxGeometry x="380" y="10" width="40" height="40" as="geometry" />
        </mxCell>
        <mxCell id="Zj6hpNKmNGpSNfHuOwGX-22" style="edgeStyle=orthogonalEdgeStyle;rounded=0;orthogonalLoop=1;jettySize=auto;html=1;entryX=1;entryY=0.5;entryDx=0;entryDy=0;" edge="1" parent="WIyWlLk6GJQsqaUBKTNV-1" source="Zj6hpNKmNGpSNfHuOwGX-2" target="Zj6hpNKmNGpSNfHuOwGX-21">
          <mxGeometry relative="1" as="geometry" />
        </mxCell>
        <mxCell id="Zj6hpNKmNGpSNfHuOwGX-2" value="Mulitplayer Men체 aufrufen" style="rounded=1;whiteSpace=wrap;html=1;fontSize=12;glass=0;strokeWidth=1;shadow=0;" vertex="1" parent="WIyWlLk6GJQsqaUBKTNV-1">
          <mxGeometry x="340" y="270" width="120" height="40" as="geometry" />
        </mxCell>
        <mxCell id="Zj6hpNKmNGpSNfHuOwGX-23" style="edgeStyle=orthogonalEdgeStyle;rounded=0;orthogonalLoop=1;jettySize=auto;html=1;entryX=0;entryY=0.5;entryDx=0;entryDy=0;exitX=0.5;exitY=1;exitDx=0;exitDy=0;" edge="1" parent="WIyWlLk6GJQsqaUBKTNV-1" source="Zj6hpNKmNGpSNfHuOwGX-3" target="Zj6hpNKmNGpSNfHuOwGX-21">
          <mxGeometry relative="1" as="geometry" />
        </mxCell>
        <mxCell id="Zj6hpNKmNGpSNfHuOwGX-3" value="Singleplayer Men체 aufrufen" style="rounded=1;whiteSpace=wrap;html=1;fontSize=12;glass=0;strokeWidth=1;shadow=0;" vertex="1" parent="WIyWlLk6GJQsqaUBKTNV-1">
          <mxGeometry x="170" y="270" width="120" height="40" as="geometry" />
        </mxCell>
        <mxCell id="Zj6hpNKmNGpSNfHuOwGX-9" value="" style="edgeStyle=orthogonalEdgeStyle;rounded=0;orthogonalLoop=1;jettySize=auto;html=1;" edge="1" parent="WIyWlLk6GJQsqaUBKTNV-1" source="Zj6hpNKmNGpSNfHuOwGX-4">
          <mxGeometry relative="1" as="geometry">
            <mxPoint x="570" y="360" as="targetPoint" />
          </mxGeometry>
        </mxCell>
        <mxCell id="Zj6hpNKmNGpSNfHuOwGX-4" value="Programm beenden" style="rounded=1;whiteSpace=wrap;html=1;fontSize=12;glass=0;strokeWidth=1;shadow=0;" vertex="1" parent="WIyWlLk6GJQsqaUBKTNV-1">
          <mxGeometry x="510" y="270" width="120" height="40" as="geometry" />
        </mxCell>
        <mxCell id="Zj6hpNKmNGpSNfHuOwGX-10" value="" style="strokeWidth=2;html=1;shape=mxgraph.flowchart.start_2;whiteSpace=wrap;" vertex="1" parent="WIyWlLk6GJQsqaUBKTNV-1">
          <mxGeometry x="550" y="360" width="40" height="40" as="geometry" />
        </mxCell>
        <mxCell id="Zj6hpNKmNGpSNfHuOwGX-32" style="edgeStyle=orthogonalEdgeStyle;rounded=0;orthogonalLoop=1;jettySize=auto;html=1;entryX=0.5;entryY=0;entryDx=0;entryDy=0;" edge="1" parent="WIyWlLk6GJQsqaUBKTNV-1" source="Zj6hpNKmNGpSNfHuOwGX-14" target="Zj6hpNKmNGpSNfHuOwGX-33">
          <mxGeometry relative="1" as="geometry">
            <mxPoint x="170" y="570" as="targetPoint" />
          </mxGeometry>
        </mxCell>
        <mxCell id="Zj6hpNKmNGpSNfHuOwGX-14" value="Neues Spiel starten" style="rounded=1;whiteSpace=wrap;html=1;fontSize=12;glass=0;strokeWidth=1;shadow=0;" vertex="1" parent="WIyWlLk6GJQsqaUBKTNV-1">
          <mxGeometry x="110" y="490" width="120" height="40" as="geometry" />
        </mxCell>
        <mxCell id="Zj6hpNKmNGpSNfHuOwGX-37" style="edgeStyle=orthogonalEdgeStyle;rounded=0;orthogonalLoop=1;jettySize=auto;html=1;entryX=0.5;entryY=0;entryDx=0;entryDy=0;" edge="1" parent="WIyWlLk6GJQsqaUBKTNV-1" source="Zj6hpNKmNGpSNfHuOwGX-15" target="Zj6hpNKmNGpSNfHuOwGX-36">
          <mxGeometry relative="1" as="geometry" />
        </mxCell>
        <mxCell id="Zj6hpNKmNGpSNfHuOwGX-15" value="Spielstand laden" style="rounded=1;whiteSpace=wrap;html=1;fontSize=12;glass=0;strokeWidth=1;shadow=0;" vertex="1" parent="WIyWlLk6GJQsqaUBKTNV-1">
          <mxGeometry x="260" y="490" width="120" height="40" as="geometry" />
        </mxCell>
        <mxCell id="Zj6hpNKmNGpSNfHuOwGX-25" value="" style="edgeStyle=orthogonalEdgeStyle;rounded=0;orthogonalLoop=1;jettySize=auto;html=1;" edge="1" parent="WIyWlLk6GJQsqaUBKTNV-1" source="Zj6hpNKmNGpSNfHuOwGX-21" target="Zj6hpNKmNGpSNfHuOwGX-24">
          <mxGeometry relative="1" as="geometry" />
        </mxCell>
        <mxCell id="Zj6hpNKmNGpSNfHuOwGX-21" value="" style="rhombus;whiteSpace=wrap;html=1;shadow=0;fontFamily=Helvetica;fontSize=12;align=center;strokeWidth=1;spacing=6;spacingTop=-4;" vertex="1" parent="WIyWlLk6GJQsqaUBKTNV-1">
          <mxGeometry x="300" y="340" width="40" height="40" as="geometry" />
        </mxCell>
        <mxCell id="Zj6hpNKmNGpSNfHuOwGX-26" style="edgeStyle=orthogonalEdgeStyle;rounded=0;orthogonalLoop=1;jettySize=auto;html=1;entryX=1;entryY=0.5;entryDx=0;entryDy=0;exitX=1;exitY=0.5;exitDx=0;exitDy=0;" edge="1" parent="WIyWlLk6GJQsqaUBKTNV-1" source="Zj6hpNKmNGpSNfHuOwGX-24" target="WIyWlLk6GJQsqaUBKTNV-3">
          <mxGeometry relative="1" as="geometry">
            <mxPoint x="690" y="110" as="targetPoint" />
            <Array as="points">
              <mxPoint x="670" y="420" />
              <mxPoint x="670" y="100" />
            </Array>
          </mxGeometry>
        </mxCell>
        <mxCell id="Zj6hpNKmNGpSNfHuOwGX-29" value="Eingabe: 3" style="edgeLabel;html=1;align=center;verticalAlign=middle;resizable=0;points=[];" vertex="1" connectable="0" parent="Zj6hpNKmNGpSNfHuOwGX-26">
          <mxGeometry x="-0.7805" y="1" relative="1" as="geometry">
            <mxPoint as="offset" />
          </mxGeometry>
        </mxCell>
        <mxCell id="Zj6hpNKmNGpSNfHuOwGX-30" value="Eingabe: 2" style="edgeStyle=orthogonalEdgeStyle;rounded=0;orthogonalLoop=1;jettySize=auto;html=1;" edge="1" parent="WIyWlLk6GJQsqaUBKTNV-1" source="Zj6hpNKmNGpSNfHuOwGX-24" target="Zj6hpNKmNGpSNfHuOwGX-15">
          <mxGeometry relative="1" as="geometry" />
        </mxCell>
        <mxCell id="Zj6hpNKmNGpSNfHuOwGX-31" value="Eingabe:1" style="edgeStyle=orthogonalEdgeStyle;rounded=0;orthogonalLoop=1;jettySize=auto;html=1;entryX=0.5;entryY=0;entryDx=0;entryDy=0;" edge="1" parent="WIyWlLk6GJQsqaUBKTNV-1" source="Zj6hpNKmNGpSNfHuOwGX-24" target="Zj6hpNKmNGpSNfHuOwGX-14">
          <mxGeometry x="0.5" relative="1" as="geometry">
            <mxPoint as="offset" />
          </mxGeometry>
        </mxCell>
        <mxCell id="Zj6hpNKmNGpSNfHuOwGX-24" value="Aktion ausw채hlen" style="rounded=1;whiteSpace=wrap;html=1;fontSize=12;glass=0;strokeWidth=1;shadow=0;" vertex="1" parent="WIyWlLk6GJQsqaUBKTNV-1">
          <mxGeometry x="260" y="400" width="120" height="40" as="geometry" />
        </mxCell>
        <mxCell id="Zj6hpNKmNGpSNfHuOwGX-39" style="edgeStyle=orthogonalEdgeStyle;rounded=0;orthogonalLoop=1;jettySize=auto;html=1;entryX=0;entryY=0.5;entryDx=0;entryDy=0;" edge="1" parent="WIyWlLk6GJQsqaUBKTNV-1" source="Zj6hpNKmNGpSNfHuOwGX-33" target="Zj6hpNKmNGpSNfHuOwGX-35">
          <mxGeometry relative="1" as="geometry" />
        </mxCell>
        <mxCell id="Zj6hpNKmNGpSNfHuOwGX-33" value="Spielernamen eintragen" style="rounded=1;whiteSpace=wrap;html=1;fontSize=12;glass=0;strokeWidth=1;shadow=0;" vertex="1" parent="WIyWlLk6GJQsqaUBKTNV-1">
          <mxGeometry x="110" y="590" width="120" height="40" as="geometry" />
        </mxCell>
        <mxCell id="Zj6hpNKmNGpSNfHuOwGX-41" style="edgeStyle=orthogonalEdgeStyle;rounded=0;orthogonalLoop=1;jettySize=auto;html=1;" edge="1" parent="WIyWlLk6GJQsqaUBKTNV-1" source="Zj6hpNKmNGpSNfHuOwGX-34">
          <mxGeometry relative="1" as="geometry">
            <mxPoint x="250" y="829.9999999999998" as="targetPoint" />
          </mxGeometry>
        </mxCell>
        <mxCell id="Zj6hpNKmNGpSNfHuOwGX-34" value="Spiel beginnt" style="rounded=1;whiteSpace=wrap;html=1;fontSize=12;glass=0;strokeWidth=1;shadow=0;" vertex="1" parent="WIyWlLk6GJQsqaUBKTNV-1">
          <mxGeometry x="190" y="750" width="120" height="40" as="geometry" />
        </mxCell>
        <mxCell id="Zj6hpNKmNGpSNfHuOwGX-40" value="" style="edgeStyle=orthogonalEdgeStyle;rounded=0;orthogonalLoop=1;jettySize=auto;html=1;" edge="1" parent="WIyWlLk6GJQsqaUBKTNV-1" source="Zj6hpNKmNGpSNfHuOwGX-35" target="Zj6hpNKmNGpSNfHuOwGX-34">
          <mxGeometry relative="1" as="geometry" />
        </mxCell>
        <mxCell id="Zj6hpNKmNGpSNfHuOwGX-35" value="" style="rhombus;whiteSpace=wrap;html=1;shadow=0;fontFamily=Helvetica;fontSize=12;align=center;strokeWidth=1;spacing=6;spacingTop=-4;" vertex="1" parent="WIyWlLk6GJQsqaUBKTNV-1">
          <mxGeometry x="230" y="680" width="40" height="40" as="geometry" />
        </mxCell>
        <mxCell id="Zj6hpNKmNGpSNfHuOwGX-38" style="edgeStyle=orthogonalEdgeStyle;rounded=0;orthogonalLoop=1;jettySize=auto;html=1;entryX=1;entryY=0.5;entryDx=0;entryDy=0;" edge="1" parent="WIyWlLk6GJQsqaUBKTNV-1" source="Zj6hpNKmNGpSNfHuOwGX-36" target="Zj6hpNKmNGpSNfHuOwGX-35">
          <mxGeometry relative="1" as="geometry" />
        </mxCell>
        <mxCell id="Zj6hpNKmNGpSNfHuOwGX-36" value="Spielstand ausw채hlen" style="rounded=1;whiteSpace=wrap;html=1;fontSize=12;glass=0;strokeWidth=1;shadow=0;" vertex="1" parent="WIyWlLk6GJQsqaUBKTNV-1">
          <mxGeometry x="260" y="590" width="120" height="40" as="geometry" />
        </mxCell>
        <mxCell id="Zj6hpNKmNGpSNfHuOwGX-42" value="" style="strokeWidth=2;html=1;shape=mxgraph.flowchart.start_2;whiteSpace=wrap;" vertex="1" parent="WIyWlLk6GJQsqaUBKTNV-1">
          <mxGeometry x="230" y="830" width="40" height="40" as="geometry" />
        </mxCell>
      </root>
    </mxGraphModel>
  </diagram>
</mxfile>
